<?xml version="1.0" encoding="UTF-8"?>
<svg id="Layer_1" xmlns="http://www.w3.org/2000/svg" version="1.1" viewBox="0 0 29.8 56.2">
  <!-- Generator: Adobe Illustrator 29.1.0, SVG Export Plug-In . SVG Version: 2.1.0 Build 142)  -->
  <defs>
    <style>
      .st0 {
        fill: #ef3939;
        fill-rule: evenodd;
      }
    </style>
  </defs>
  <path class="st0" d="M20,34.3c.2.3,0,7.3,0,7.4-1.4,1.3-5.9,1-7.9.3-1-.4-1.4-1-1.3-2.9,0-.5.1-2.1,0-2.2,0-.2.1-1.4-.4-1.5-2.1-.7-2-1.2-1.9-3.6,0-2.7-.3-3.7,1.9-4.2,1-.2.2-3.3,1-2.7,2.4,1.4,8.4.6,8.6,0,0-.2.6,8-.4,8.3-1.9.6-8.7.9-8.7-.7,0-.4,0-2.8-.1-3.8,0-.2-.3,0-.5.1-.5.2-.9,4.9.2,5.3,3.8,1.3,8.1.4,8.8.3.4,0,.7-.3.8,0h0Z"/>
  <path class="st0" d="M9.7,22.4c-.7-1.1-2.1-1.7-3-5.3-1-3.8,3.2,3.7,17.3-1,1.3-.4-1.4,4.8-3.2,6.9-.3.4-1.1,2-5.7,1.9-4.8-.1-4.8-1.7-5.4-2.4h0Z"/>
  <path class="st0" d="M21.2,6.9c1.9.5,3.6,1.4,3.9,2.6,0,.4,0,4.1,0,4.4-.8,2.5-11.6,4.1-16.8,1.5-2.9-1.4-1.8-1.9-2.4-5.1-.2-1.2,1.9-2.2,3.9-2.9-.8-1.1-1.5-2.5-.9-2.9.6-.4,1.5,1.1,2.1,2.5.4-.1.7-.2,1-.3,0,0,2.6-.4,3.2-.5-.2-1.3-.1-2.8.5-2.9.7,0,.8,1.5.7,2.9.6,0,1.3.2,1.8.2.6,0,1.2,0,1.9.2.6-1.2,1.4-2.4,2-2.1.6.3,0,1.4-.7,2.4h0ZM10.2,8c-3.7,1.2-4.5,3.6,2.7,4,0-.6.2-1.3.6-1.8.9-.9,2.3-.9,3.1,0,.5.5.7,1.2.6,1.9,1.9-.1,3.7-.3,5-1,2.9-1.4.8-2.7-1.8-3.4,0,0-.2.2-.2.3-.4.5-.8.8-.9.7-.1,0,0-.6.2-1.2-1.5-.3-2.9-.5-3.5-.4,0,0,0,0,0,0,0,0,0,0,0,0h0c-.1.6-.3,1-.4,1-.1,0-.3-.4-.5-1-1.5,0-2.9.2-4.1.5.2.6.2,1,0,1.1-.1,0-.5-.3-1-.8h0ZM16,7.2c.1,0,.2,0,.2,0,0,0-.2,0-.2,0h0Z"/>
  <path class="st0" d="M20.1,43.7c0,1.5.2,2.7-1.7,3-3.9.6-7.5.3-7.6-.7,0-.2,0-3.5.3-3.7.6-.3.6,1.6,8.3.5.9-.1.7.9.7,1h0Z"/>
  <path class="st0" d="M8.8,4.5c.8-.5,1.9,1.7,2.3,3.2.2.6.2,1.1,0,1.1-.1,0-.6-.3-1-.8-.9-1.1-2.1-3-1.4-3.5h0Z"/>
  <path class="st0" d="M20.7,49.7c0-.3-.2-.7-.6-1.2-.3-.5-.3-.9-.5-1.1-1,.6-2.6.9-4.5.9s-3.3-.3-4.4-.9c-.2.2-.3.6-.4.7,0,0-.9.7-.8,1.5,0,.1,0,.2,0,.4,0,1.2,2.2,2.1,4.9,2.2.1,0,.2,0,.4,0,.1,0,.2,0,.4,0,3.1,0,5.7-1,5.7-2.3s0-.3,0-.4Z"/>
</svg>